<?xml version="1.0" encoding="utf-8"?>
<!-- Generator: Adobe Illustrator 25.2.3, SVG Export Plug-In . SVG Version: 6.00 Build 0)  -->
<svg version="1.1" id="Layer_1" xmlns="http://www.w3.org/2000/svg" xmlns:xlink="http://www.w3.org/1999/xlink" x="0px" y="0px"
	 viewBox="0 0 700 395" style="enable-background:new 0 0 700 395;" xml:space="preserve">
<style type="text/css">
	.st0{fill:#000222;}
	.st1{fill:#FFFFFF;}
	.st2{enable-background:new    ;}
</style>
<g id="Layer_1_1_">
	<rect y="-0.5" class="st0" width="700" height="395"/>
</g>
<g id="Layer_3">
	<path class="st1" d="M220.9,105.3h1.1c7.7,39.7,11.5,76.1,11.5,109.2c2.7,24.5,13,36.8,31,36.8h6.9c26.8-5.7,40.2-10.7,40.2-14.9
		l-3.4-10.3c2.4-17.6,7.7-26.4,16.1-26.4c5.9,0,10.5,7.3,13.8,21.8c0,5.4-3.1,12.7-9.2,21.8v1.1c0,2.7,4.2,4.6,12.6,5.7h5.7
		c10-2.1,14.9-5.9,14.9-11.5c-10-74.1-14.9-115.8-14.9-125.3c1.8-4.6,3.3-6.9,4.6-6.9c8.4,13.9,12.6,23.8,12.6,29.9v1.1
		c-3.8,0-5.7,0.8-5.7,2.3l10.3,95.4c-1.6,17.6-7.3,26.4-17.2,26.4l-12.6,3.4c-4.7,0-12.7-5-24.1-14.9c-20.6,10-37.5,14.9-50.6,14.9
		c-26.1,0-39.1-22.6-39.1-67.8c-2.3-36.1-5.4-63.7-9.2-82.8C217.9,108.4,219.4,105.3,220.9,105.3z M279.5,106.4h3.4
		c1.5,0,3.1,2.3,4.6,6.9l-1.1,3.4l-8-1.1l-5.7,26.4h-2.3c-4.3-13-10.1-19.5-17.2-19.5l-3.4-6.9c1-3.8,2.1-5.7,3.4-5.7h2.3
		c8.4,7.1,12.6,11.7,12.6,13.8h4.6v-2.3C272.6,115.8,274.9,110.8,279.5,106.4z M125.5,107.6c4.2,0,6.8,1.5,8,4.6v5.7h-2.3v1.1
		l-1.1-1.1h-5.7v8c-0.8,10.7-2.3,16.1-4.6,16.1c-7.5-10.7-13.6-16.5-18.4-17.2l-3.4-4.6v-4.6l3.4-3.4c1.9,0,6.8,3.8,14.9,11.5h3.4
		C120.8,113,122.8,107.6,125.5,107.6z M184.1,107.6v13.8c0,1.5,1.1,2.3,3.4,2.3l3.4-1.1v1.1c-1.5,4.8-3.4,7.5-5.7,8h-1.1
		c-3.8-2.1-5.7-5.6-5.7-10.3C180.7,112.2,182.6,107.6,184.1,107.6z M386.4,107.6c1.5,0,5.7,10.3,12.6,31l-6.9,2.3l9.2,103.5v3.4
		c-0.6,10-2.1,14.9-4.6,14.9h-1.1l-13.8-149.4C383.3,109.8,384.9,107.9,386.4,107.6z M72.6,128.3h2.3l-1.1,10.3
		c0,3.1,1.5,5.4,4.6,6.9h1.1l3.4-2.3l1.1,3.4c-2,4.9-3.9,7.6-5.7,8H76c-2.9,0-4.8-4.6-5.7-13.8L72.6,128.3z M341.6,132.9l1.1,1.1
		v1.1c0,4-17.6,13.9-52.9,29.9l-43.7,23h-2.3v-4.6C243.9,178.3,276.5,161.4,341.6,132.9z M192.2,139.8c4.2,0,7.7,2.3,10.3,6.9v1.1
		l-5.7,6.9l-11.5-3.4c-1.3,3.8-3.2,5.7-5.7,5.7c-6.1-2.6-9.2-4.5-9.2-5.7V149l5.7-6.9h3.4l3.4,2.3
		C185.7,144.4,188.8,142.9,192.2,139.8z M160,140.9v3.4c-8.7,6.1-26.8,14.2-54,24.1l-1.1-1.1c0-4.4,18-13.2,54-26.4H160z
		 M47.3,154.7v1.1l-1.1,5.7l-1.1-1.1H44C44.9,156.6,46,154.7,47.3,154.7z M43.9,161.6H45v4.6l-2.3,12.6v3.4c0,5,1.1,10,3.4,14.9h3.4
		c2.3,0,3.4-1.5,3.4-4.6h2.3v1.1c-1,10-2.9,14.9-5.7,14.9h-3.4c-3.5,0-6.6-5.7-9.2-17.2C37.8,181.5,40.1,171.5,43.9,161.6z
		 M187.6,169.7c5.4,1.3,8,5.5,8,12.6v4.6c0,8.4-1.1,12.6-3.4,12.6s-3.4-4.6-3.4-13.8l-1.1-1.1h-2.3c-4.2,0-11,7.3-20.7,21.8
		l-4.6,4.6v2.3c16.4,3.1,35.2,4.6,56.3,4.6h4.6v1.1c0,7.7-5.7,11.5-17.2,11.5c-13.3,3.1-30.1,9.6-50.6,19.5l-21.8,6.9H129
		c-10,0-18.8-8-26.4-24.1l-1.1-1.1h-6.9c-9.2,3.6-16.5,12.4-21.8,26.4c0,4.9-4.2,10.6-12.6,17.2c-13.8-5.4-20.7-16.9-20.7-34.5v-1.1
		c0.8-10.7,2.3-16.1,4.6-16.1H45l-1.1,13.8v5.7c0,5.9,3.8,12.1,11.5,18.4h3.4c5.3,0,11-8.4,17.2-25.3c4.2-7.9,12.6-14,25.3-18.4
		c4.4,0,9.4,6.5,14.9,19.5c4.1,3.1,8.7,5.4,13.8,6.9c24.5-4.9,36.8-9.5,36.8-13.8v-2.3l-37.9-4.6c0-8.9,9.2-16.6,27.6-23
		c4.5-2.4,13-12,25.3-28.7C185.7,172,187.6,171.2,187.6,169.7z M315.2,172c5.2,2.2,8.7,4.9,10.3,8c0,3.3-1.9,6.8-5.7,10.3
		c-1.9,0-5.3-3.1-10.3-9.2C310.5,177.1,312.4,174,315.2,172z M89.9,180h4.6l8,6.9v1.1c0,4.1-1.5,6.8-4.6,8l-9.2-3.4l-6.9,5.7h-2.3
		l-9.2-8c1.9-5.4,4.2-8,6.9-8l9.2,3.4L89.9,180z M277.2,192.7l1.1,1.1h1.1l-4.6,17.2c1.5,6.1,3.1,9.2,4.6,9.2h1.1l3.4-2.3l1.1,3.4
		c-1.8,4.6-3.3,6.9-4.6,6.9H277c-2.5,0-4.4-4.6-5.7-13.8l2.3-5.7h-1.1L277.2,192.7z M315.2,220.3c0,5.2,1.9,9,5.7,11.5h3.4
		c4.6-2.1,6.9-4.8,6.9-8c-2.4-6.1-5.9-9.2-10.3-9.2C318.9,214.5,317,216.4,315.2,220.3z M224.4,245.5v4.6c0,1.9-18,8-54,18.4v-1.1
		c0-4.2,13.4-9.9,40.2-17.2C210.6,248.4,215.2,246.9,224.4,245.5z M309.4,259.3v1.1l-2.3,10.3v1.1c0,1.3,2.3,2.4,6.9,3.4
		c-0.9,2.9-2.8,5.6-5.7,8c-2.6,0-4.5-2.7-5.7-8C304.6,264.7,306.9,259.3,309.4,259.3z M117.5,261.6l1.1,1.1v2.3
		c0,2.8-11.1,7-33.3,12.6l-1.1-1.1v-1.1C84.1,272.6,95.2,268,117.5,261.6z M632.8,105.8c4.3,0,6.4,5.7,6.4,17.2l5.1,8.6v1.4
		l-0.8,3.6l-7.9-2.9c-22.7,21.5-39.5,32.3-50.3,32.3v-0.7c0-1,10.8-8.1,32.3-21.6c8.6-7.3,12.9-11.4,12.9-12.3V131l-6.4-8v-0.7
		C624.2,113.6,627.1,108.1,632.8,105.8z M582.5,106.5l7.2,2.1l1.4,5.1c-0.6,2.4-1.4,3.5-2.2,3.5h-0.7c-2.5-2.4-4.7-3.5-6.5-3.5
		c-1.9,0.8-2.9,2.4-2.9,5v8c0,9-1,16.4-2.9,22.2h-2.1c-4.9-12.5-10.4-18.7-16.6-18.7c-4.3-2.4-6.4-5-6.4-7.9v-0.8c0-3.3,1.2-5,3.5-5
		c4,0,10.5,5.5,19.4,16.5h0.7v-8.6C574.6,117.1,577.2,111.1,582.5,106.5z M441,108c3.4,1,5.1,4.1,5.1,9.3l-0.8,8.6l7.2,8.6
		c-0.6,2.9-1.3,4.3-2.1,4.3h-0.8l-6.4-4.3c-2.2,0-6.3,3.6-12.3,10.8l-21.6,12.9h-2.9v-1.4l29.5-23l0.7-3.6c-2.4-2.4-4.1-5-5-7.9
		C431.7,115.6,434.8,110.8,441,108z M528.6,109.4h0.8l0.7,2.1c0,3.6-15.3,14-46,30.9c-6.8,5.7-11.6,8.6-14.4,8.6H469v-1.4
		c0-4.5,9.3-11.7,28-21.6C511,118.4,521.5,112.2,528.6,109.4z M628.5,117.3v0.8c1.7,2.9,3.8,4.3,6.4,4.3h0.8
		c-0.6-4.8-1.6-7.2-2.9-7.2h-2.2L628.5,117.3z M436.6,119.5c1,2.4,2.7,3.5,5.1,3.5v-4.3l-1.4-1.4h-1.4L436.6,119.5z M536.6,148.9
		h1.4v0.8l-2.9,10.7v3.6c0,4.6,2.1,7.2,6.4,7.9l3.6-5.7l0.7,0.8v0.7c-1.4,8.6-3.8,12.9-7.2,12.9c-4.8-2.5-7.2-6.3-7.2-11.5v-1.4
		C531.5,163,533.2,156.8,536.6,148.9z M636.4,153.2l0.8,0.8c-2.4,5.8-3.6,10.3-3.6,13.6c1.1,4.3,2.3,6.5,3.6,6.5h0.7
		c1.9-1,2.9-2.2,2.9-3.6h1.4l0.8,2.2c-1.5,6.2-3.9,9.3-7.2,9.3c-2.7,0-4.7-3.8-5.7-11.5C630,164.9,632.1,159.2,636.4,153.2z
		 M450.3,156.1h2.9c5.7,3.8,8.8,6.9,9.3,9.4c0,2.7-1.9,5.6-5.7,8.6h-2.1l-7.2-5.1h-0.8l-5.7,7.2l-0.7,0.8h-0.8
		c-6-2.6-9.8-5.7-11.5-9.4c1.9-4.9,3.8-7.8,5.7-8.6h0.8l10.1,5.1L450.3,156.1z M489.8,169h1.4c9.1,8,13.7,13.3,13.7,15.8v0.8
		l-4.3,0.7v2.2c6.5,10.1,10,17.5,10.7,22.2c0,14.2-2.9,22.8-8.6,25.9c-7.2,6.4-10.7,12.4-10.7,18c2.1,13.9,7.9,20.8,17.2,20.8h2.1
		c19.9,0,39.6-12.9,58.9-38.8v-1.4l-2.1-2.1l-16.6,2.9c-10.5,0-15.8-3.8-15.8-11.5v-4.3c2.9-13,8.5-19.4,16.6-19.4
		c5.2,0.2,12.2,5.2,20.8,15.1h0.8c1.8,0,8.7-4.6,20.8-13.7h2.2c1.4,0,2.4,4.1,2.9,12.3c3.6,4.3,7.4,6.4,11.5,6.4h4.3
		c7.4,0,14.8-7.7,22.2-23h0.8l1.4,1.4v0.8l-2.2,8.6c3.8,4.8,8.1,7.2,12.9,7.2h1.4c2.5,0,3.9-0.7,4.3-2.2V213l-2.9-7.2
		c0.6-6.7,1.9-10.1,3.6-10.1c2.8,0,4.7,6.9,5.7,20.8c0,7.1-4.8,11.7-14.4,13.7c-5.6-1.3-10.9-4.4-15.8-9.4
		c-7.4,9.1-15.1,13.7-23,13.7c-11-2.7-16.6-8.3-16.6-16.6h-2.1c-9.6,6.1-14.4,11.1-14.4,15.1c0,17.8-16.5,35.7-49.6,53.8L515,289
		h-4.3l-0.8,0.7c-6.1-1.1-11.8-4.5-17.2-10.1c-3.3-6.8-5-11.6-5-14.4v-13.6h-1.4c-25.9,18.3-44.5,28.1-56,29.4l-32.4,7.2l-0.7-0.7
		v-1.4c3.2-2.4,16.8-8.7,40.9-18.7c22.2-11.6,41.9-24.7,58.9-39.6c5.3-4.4,8-7.9,8-10.3c0-2.5-4.1-10.5-12.3-24.1l-5-15L489.8,169z
		 M463.9,179.1l0.8,0.8h0.7c0,5.1-3.6,13.3-10.7,24.4v1.4c8.6,5.6,12.9,11,12.9,16.5v6.5c0,8.3-7.4,15.7-22.3,22.2H441
		c-6.2,0-9.3-4.5-9.3-13.6c0-6.4,2.1-13.8,6.4-22.3v-0.7c0-2.4-4.1-6.7-12.2-12.9c0-1.3-1.2-2.5-3.6-3.6c-1.4-1.7-2-4.3-1.9-8
		s0.8-5.6,1.9-5.6h2.2c10.4,4.5,15.7,7.1,15.8,7.9v1.4c-1.9,0.3-2.9,1-2.9,2.2c2.9,3.3,5.5,5,7.9,5h1.4L463.9,179.1z M544.4,218.6
		c0.5,1.9,1.9,2.9,4.3,2.9h7.2c2.4,0,3.6-0.5,3.6-1.4c-1.2-2.9-3.4-4.3-6.5-4.3h-5.7L544.4,218.6z M437.4,230.1v0.7
		c0,2.6,1.2,4.5,3.5,5.7h2.9c5,0,10.8-3.4,17.2-10.1c-1.3-2.9-5.8-6-13.6-9.3h-2.2C442.6,219.3,440,223.6,437.4,230.1z M646.4,245.2
		h1.4v1.4h0.8c-2.4,10.1-5.6,15.1-9.4,15.1l-6.4-2.2c0,1.5-2.7,2.9-8,4.3h-0.7c-2.6,0-4.7-0.7-6.5-2.1h-2.9
		c-1.9,0-11.5,5.5-28.7,16.5l-6.4,1.4h-0.8v-2.1c1.3,0,12.8-7.4,34.5-22.3l4.3-0.7h0.8l7.2,2.1c3.8,0,7.4-2.4,10.7-7.2
		c1,2.9,2.9,4.3,5.7,4.3C643.1,253.8,644.6,250.9,646.4,245.2z"/>
	<g class="st2">
		<path class="st1" d="M273.5,368.6l1.1,4.2c0.2,0.9,0.5,1.8,0.6,2.6h0.1c0.2-0.8,0.5-1.7,0.7-2.6l1.3-4.2h1.3l1.3,4.1
			c0.3,1,0.5,1.9,0.7,2.7h0.1c0.1-0.8,0.4-1.7,0.6-2.7l1.2-4.1h1.5l-2.7,8.2H280l-1.3-3.9c-0.3-0.9-0.5-1.7-0.7-2.7h0
			c-0.2,1-0.5,1.8-0.7,2.7l-1.3,3.9h-1.4l-2.5-8.2H273.5z"/>
		<path class="st1" d="M286.3,368.6l1.1,4.2c0.2,0.9,0.5,1.8,0.6,2.6h0.1c0.2-0.8,0.5-1.7,0.7-2.6l1.3-4.2h1.3l1.3,4.1
			c0.3,1,0.5,1.9,0.7,2.7h0.1c0.1-0.8,0.4-1.7,0.6-2.7l1.2-4.1h1.5l-2.7,8.2h-1.4l-1.3-3.9c-0.3-0.9-0.5-1.7-0.7-2.7h0
			c-0.2,1-0.5,1.8-0.7,2.7l-1.3,3.9h-1.4l-2.5-8.2H286.3z"/>
		<path class="st1" d="M299,368.6l1.1,4.2c0.2,0.9,0.5,1.8,0.6,2.6h0.1c0.2-0.8,0.5-1.7,0.7-2.6l1.3-4.2h1.3l1.3,4.1
			c0.3,1,0.5,1.9,0.7,2.7h0.1c0.1-0.8,0.4-1.7,0.6-2.7l1.2-4.1h1.5l-2.7,8.2h-1.4l-1.3-3.9c-0.3-0.9-0.5-1.7-0.7-2.7h0
			c-0.2,1-0.5,1.8-0.7,2.7l-1.3,3.9h-1.4l-2.5-8.2H299z"/>
		<path class="st1" d="M309.9,375.9c0-0.6,0.4-1.1,1-1.1s1,0.4,1,1.1c0,0.6-0.4,1.1-1,1.1C310.3,377,309.9,376.5,309.9,375.9z"/>
		<path class="st1" d="M313.5,375.3c0.4,0.3,1.2,0.6,2,0.6c1.1,0,1.6-0.5,1.6-1.2c0-0.7-0.4-1.1-1.5-1.5c-1.5-0.5-2.2-1.3-2.2-2.3
			c0-1.3,1.1-2.4,2.8-2.4c0.8,0,1.6,0.2,2,0.5l-0.4,1.1c-0.3-0.2-0.9-0.5-1.7-0.5c-0.9,0-1.4,0.5-1.4,1.1c0,0.7,0.5,1,1.6,1.4
			c1.4,0.5,2.2,1.3,2.2,2.5c0,1.4-1.1,2.5-3.1,2.5c-0.9,0-1.7-0.2-2.3-0.6L313.5,375.3z"/>
		<path class="st1" d="M327.4,374.6c0,0.9,0,1.6,0.1,2.2h-1.3l-0.1-1.3h0c-0.4,0.7-1.3,1.5-2.7,1.5c-1.3,0-2.8-0.7-2.8-3.6v-4.8h1.5
			v4.6c0,1.6,0.5,2.6,1.8,2.6c1,0,1.7-0.7,2-1.4c0.1-0.2,0.1-0.5,0.1-0.8v-5h1.5V374.6z"/>
		<path class="st1" d="M329.8,371.1c0-1,0-1.8-0.1-2.6h1.3l0.1,1.6h0.1c0.4-1.1,1.3-1.8,2.3-1.8c0.2,0,0.3,0,0.4,0.1v1.4
			c-0.2,0-0.3-0.1-0.5-0.1c-1.1,0-1.8,0.8-2,1.9c0,0.2-0.1,0.4-0.1,0.7v4.4h-1.5V371.1z"/>
		<path class="st1" d="M339.9,376.8l-0.1-1h-0.1c-0.5,0.6-1.3,1.2-2.5,1.2c-1.7,0-2.5-1.2-2.5-2.4c0-2,1.8-3.1,4.9-3.1v-0.2
			c0-0.7-0.2-1.9-1.9-1.9c-0.8,0-1.6,0.2-2.1,0.6l-0.3-1c0.7-0.4,1.7-0.7,2.7-0.7c2.5,0,3.1,1.7,3.1,3.4v3.1c0,0.7,0,1.4,0.1,2
			H339.9z M339.7,372.6c-1.6,0-3.5,0.3-3.5,1.9c0,1,0.6,1.4,1.4,1.4c1.1,0,1.8-0.7,2-1.4c0.1-0.2,0.1-0.3,0.1-0.5V372.6z"/>
		<path class="st1" d="M343.5,364.7h1.5v5.1h0c0.2-0.4,0.6-0.8,1.1-1.1c0.4-0.3,1-0.4,1.5-0.4c1.1,0,2.9,0.7,2.9,3.5v4.9H349v-4.7
			c0-1.3-0.5-2.4-1.9-2.4c-1,0-1.7,0.7-2,1.5c-0.1,0.2-0.1,0.4-0.1,0.7v5h-1.5V364.7z"/>
		<path class="st1" d="M358.6,375.5L358.6,375.5c-0.5,0.8-1.4,1.5-2.7,1.5c-1.9,0-3.5-1.7-3.5-4.2c0-3.1,2-4.4,3.7-4.4
			c1.3,0,2.1,0.6,2.5,1.4h0l0.1-1.2h1.4c0,0.7-0.1,1.4-0.1,2.3v9.3h-1.5V375.5z M358.6,371.9c0-0.2,0-0.4-0.1-0.6
			c-0.2-0.9-1-1.7-2.1-1.7c-1.5,0-2.5,1.3-2.5,3.2c0,1.6,0.8,3.1,2.4,3.1c1,0,1.8-0.6,2.1-1.6c0.1-0.2,0.1-0.5,0.1-0.7V371.9z"/>
		<path class="st1" d="M369.4,374.6c0,0.9,0,1.6,0.1,2.2h-1.3l-0.1-1.3h0c-0.4,0.7-1.3,1.5-2.7,1.5c-1.3,0-2.8-0.7-2.8-3.6v-4.8h1.5
			v4.6c0,1.6,0.5,2.6,1.8,2.6c1,0,1.7-0.7,2-1.4c0.1-0.2,0.1-0.5,0.1-0.8v-5h1.5V374.6z"/>
		<path class="st1" d="M371.9,371.1c0-1,0-1.8-0.1-2.6h1.3l0.1,1.6h0.1c0.4-1.1,1.3-1.8,2.3-1.8c0.2,0,0.3,0,0.4,0.1v1.4
			c-0.2,0-0.3-0.1-0.5-0.1c-1.1,0-1.8,0.8-2,1.9c0,0.2-0.1,0.4-0.1,0.7v4.4h-1.5V371.1z"/>
		<path class="st1" d="M381.9,376.8l-0.1-1h-0.1c-0.5,0.6-1.3,1.2-2.5,1.2c-1.7,0-2.5-1.2-2.5-2.4c0-2,1.8-3.1,4.9-3.1v-0.2
			c0-0.7-0.2-1.9-1.9-1.9c-0.8,0-1.6,0.2-2.1,0.6l-0.3-1c0.7-0.4,1.7-0.7,2.7-0.7c2.5,0,3.1,1.7,3.1,3.4v3.1c0,0.7,0,1.4,0.1,2
			H381.9z M381.7,372.6c-1.6,0-3.5,0.3-3.5,1.9c0,1,0.6,1.4,1.4,1.4c1.1,0,1.8-0.7,2-1.4c0.1-0.2,0.1-0.3,0.1-0.5V372.6z"/>
		<path class="st1" d="M385.6,370.8c0-0.9,0-1.5-0.1-2.2h1.3l0.1,1.4h0c0.4-0.8,1.4-1.5,2.7-1.5c1.1,0,2.9,0.7,2.9,3.5v4.9h-1.5
			v-4.7c0-1.3-0.5-2.4-1.9-2.4c-1,0-1.8,0.7-2,1.5c-0.1,0.2-0.1,0.4-0.1,0.7v4.9h-1.5V370.8z"/>
		<path class="st1" d="M394.6,375.9c0-0.6,0.4-1.1,1-1.1s1,0.4,1,1.1c0,0.6-0.4,1.1-1,1.1C395,377,394.6,376.5,394.6,375.9z"/>
		<path class="st1" d="M404.4,376.5c-0.4,0.2-1.3,0.5-2.4,0.5c-2.5,0-4.1-1.7-4.1-4.2c0-2.5,1.7-4.4,4.4-4.4c0.9,0,1.7,0.2,2.1,0.4
			l-0.3,1.2c-0.4-0.2-0.9-0.4-1.7-0.4c-1.9,0-2.9,1.4-2.9,3.1c0,1.9,1.2,3.1,2.9,3.1c0.8,0,1.4-0.2,1.8-0.4L404.4,376.5z"/>
		<path class="st1" d="M413.5,372.6c0,3-2.1,4.4-4.1,4.4c-2.2,0-3.9-1.6-3.9-4.2c0-2.8,1.8-4.4,4.1-4.4
			C411.9,368.4,413.5,370.1,413.5,372.6z M406.9,372.7c0,1.8,1,3.2,2.5,3.2c1.4,0,2.5-1.3,2.5-3.2c0-1.4-0.7-3.2-2.5-3.2
			S406.9,371.1,406.9,372.7z"/>
		<path class="st1" d="M415.4,370.8c0-0.9,0-1.5-0.1-2.2h1.3l0.1,1.3h0.1c0.5-0.8,1.2-1.5,2.6-1.5c1.1,0,2,0.7,2.3,1.6h0
			c0.3-0.5,0.6-0.8,0.9-1.1c0.5-0.4,1-0.6,1.8-0.6c1.1,0,2.7,0.7,2.7,3.6v4.8h-1.5v-4.7c0-1.6-0.6-2.5-1.8-2.5
			c-0.8,0-1.5,0.6-1.8,1.4c-0.1,0.2-0.1,0.5-0.1,0.7v5.1h-1.5v-4.9c0-1.3-0.6-2.3-1.7-2.3c-0.9,0-1.6,0.7-1.9,1.5
			c-0.1,0.2-0.1,0.5-0.1,0.7v5h-1.5V370.8z"/>
	</g>
</g>
</svg>
