<?xml version="1.0" encoding="utf-8"?>
<!-- Generator: Adobe Illustrator 25.2.3, SVG Export Plug-In . SVG Version: 6.00 Build 0)  -->
<svg version="1.1" xmlns="http://www.w3.org/2000/svg" xmlns:xlink="http://www.w3.org/1999/xlink" x="0px" y="0px"
	 viewBox="0 0 700 395" style="enable-background:new 0 0 700 395;" xml:space="preserve">
<style type="text/css">
	.st0{fill:#000222;}
	.st1{fill:#FFFFFF;}
</style>
<g id="Layer_1">
	<rect class="st0" width="700" height="395"/>
</g>
<g id="Layer_3">
	<g>
		<path class="st1" d="M273.5,368.6l1.1,4.2c0.2,0.9,0.5,1.8,0.6,2.6h0.1c0.2-0.8,0.5-1.7,0.7-2.6l1.3-4.2h1.3l1.3,4.1
			c0.3,1,0.5,1.9,0.7,2.7h0.1c0.1-0.8,0.4-1.7,0.6-2.7l1.2-4.1h1.5l-2.7,8.2H280l-1.3-3.9c-0.3-0.9-0.5-1.7-0.7-2.7h0
			c-0.2,1-0.5,1.8-0.7,2.7l-1.3,3.9h-1.4l-2.5-8.2H273.5z"/>
		<path class="st1" d="M286.3,368.6l1.1,4.2c0.2,0.9,0.5,1.8,0.6,2.6h0.1c0.2-0.8,0.5-1.7,0.7-2.6l1.3-4.2h1.3l1.3,4.1
			c0.3,1,0.5,1.9,0.7,2.7h0.1c0.1-0.8,0.4-1.7,0.6-2.7l1.2-4.1h1.5l-2.7,8.2h-1.4l-1.3-3.9c-0.3-0.9-0.5-1.7-0.7-2.7h0
			c-0.2,1-0.5,1.8-0.7,2.7l-1.3,3.9h-1.4l-2.5-8.2H286.3z"/>
		<path class="st1" d="M299,368.6l1.1,4.2c0.2,0.9,0.5,1.8,0.6,2.6h0.1c0.2-0.8,0.5-1.7,0.7-2.6l1.3-4.2h1.3l1.3,4.1
			c0.3,1,0.5,1.9,0.7,2.7h0.1c0.1-0.8,0.4-1.7,0.6-2.7l1.2-4.1h1.5l-2.7,8.2h-1.4l-1.3-3.9c-0.3-0.9-0.5-1.7-0.7-2.7h0
			c-0.2,1-0.5,1.8-0.7,2.7l-1.3,3.9h-1.4l-2.5-8.2H299z"/>
		<path class="st1" d="M309.9,375.9c0-0.6,0.4-1.1,1-1.1c0.6,0,1,0.4,1,1.1c0,0.6-0.4,1.1-1,1.1C310.3,377,309.9,376.5,309.9,375.9z
			"/>
		<path class="st1" d="M313.5,375.3c0.4,0.3,1.2,0.6,2,0.6c1.1,0,1.6-0.5,1.6-1.2c0-0.7-0.4-1.1-1.5-1.5c-1.5-0.5-2.2-1.3-2.2-2.3
			c0-1.3,1.1-2.4,2.8-2.4c0.8,0,1.6,0.2,2,0.5l-0.4,1.1c-0.3-0.2-0.9-0.5-1.7-0.5c-0.9,0-1.4,0.5-1.4,1.1c0,0.7,0.5,1,1.6,1.4
			c1.4,0.5,2.2,1.3,2.2,2.5c0,1.4-1.1,2.5-3.1,2.5c-0.9,0-1.7-0.2-2.3-0.6L313.5,375.3z"/>
		<path class="st1" d="M327.4,374.6c0,0.9,0,1.6,0.1,2.2h-1.3l-0.1-1.3h0c-0.4,0.7-1.3,1.5-2.7,1.5c-1.3,0-2.8-0.7-2.8-3.6v-4.8h1.5
			v4.6c0,1.6,0.5,2.6,1.8,2.6c1,0,1.7-0.7,2-1.4c0.1-0.2,0.1-0.5,0.1-0.8v-5h1.5V374.6z"/>
		<path class="st1" d="M329.8,371.1c0-1,0-1.8-0.1-2.6h1.3l0.1,1.6h0.1c0.4-1.1,1.3-1.8,2.3-1.8c0.2,0,0.3,0,0.4,0.1v1.4
			c-0.2,0-0.3-0.1-0.5-0.1c-1.1,0-1.8,0.8-2,1.9c0,0.2-0.1,0.4-0.1,0.7v4.4h-1.5V371.1z"/>
		<path class="st1" d="M339.9,376.8l-0.1-1h-0.1c-0.5,0.6-1.3,1.2-2.5,1.2c-1.7,0-2.5-1.2-2.5-2.4c0-2,1.8-3.1,4.9-3.1v-0.2
			c0-0.7-0.2-1.9-1.9-1.9c-0.8,0-1.6,0.2-2.1,0.6l-0.3-1c0.7-0.4,1.7-0.7,2.7-0.7c2.5,0,3.1,1.7,3.1,3.4v3.1c0,0.7,0,1.4,0.1,2
			H339.9z M339.7,372.6c-1.6,0-3.5,0.3-3.5,1.9c0,1,0.6,1.4,1.4,1.4c1.1,0,1.8-0.7,2-1.4c0.1-0.2,0.1-0.3,0.1-0.5V372.6z"/>
		<path class="st1" d="M343.5,364.7h1.5v5.1h0c0.2-0.4,0.6-0.8,1.1-1.1c0.4-0.3,1-0.4,1.5-0.4c1.1,0,2.9,0.7,2.9,3.5v4.9H349v-4.7
			c0-1.3-0.5-2.4-1.9-2.4c-1,0-1.7,0.7-2,1.5c-0.1,0.2-0.1,0.4-0.1,0.7v5h-1.5V364.7z"/>
		<path class="st1" d="M358.6,375.5L358.6,375.5c-0.5,0.8-1.4,1.5-2.7,1.5c-1.9,0-3.5-1.7-3.5-4.2c0-3.1,2-4.4,3.7-4.4
			c1.3,0,2.1,0.6,2.5,1.4h0l0.1-1.2h1.4c0,0.7-0.1,1.4-0.1,2.3v9.3h-1.5V375.5z M358.6,371.9c0-0.2,0-0.4-0.1-0.6
			c-0.2-0.9-1-1.7-2.1-1.7c-1.5,0-2.5,1.3-2.5,3.2c0,1.6,0.8,3.1,2.4,3.1c1,0,1.8-0.6,2.1-1.6c0.1-0.2,0.1-0.5,0.1-0.7V371.9z"/>
		<path class="st1" d="M369.4,374.6c0,0.9,0,1.6,0.1,2.2h-1.3l-0.1-1.3h0c-0.4,0.7-1.3,1.5-2.7,1.5c-1.3,0-2.8-0.7-2.8-3.6v-4.8h1.5
			v4.6c0,1.6,0.5,2.6,1.8,2.6c1,0,1.7-0.7,2-1.4c0.1-0.2,0.1-0.5,0.1-0.8v-5h1.5V374.6z"/>
		<path class="st1" d="M371.9,371.1c0-1,0-1.8-0.1-2.6h1.3l0.1,1.6h0.1c0.4-1.1,1.3-1.8,2.3-1.8c0.2,0,0.3,0,0.4,0.1v1.4
			c-0.2,0-0.3-0.1-0.5-0.1c-1.1,0-1.8,0.8-2,1.9c0,0.2-0.1,0.4-0.1,0.7v4.4h-1.5V371.1z"/>
		<path class="st1" d="M381.9,376.8l-0.1-1h-0.1c-0.5,0.6-1.3,1.2-2.5,1.2c-1.7,0-2.5-1.2-2.5-2.4c0-2,1.8-3.1,4.9-3.1v-0.2
			c0-0.7-0.2-1.9-1.9-1.9c-0.8,0-1.6,0.2-2.1,0.6l-0.3-1c0.7-0.4,1.7-0.7,2.7-0.7c2.5,0,3.1,1.7,3.1,3.4v3.1c0,0.7,0,1.4,0.1,2
			H381.9z M381.7,372.6c-1.6,0-3.5,0.3-3.5,1.9c0,1,0.6,1.4,1.4,1.4c1.1,0,1.8-0.7,2-1.4c0.1-0.2,0.1-0.3,0.1-0.5V372.6z"/>
		<path class="st1" d="M385.6,370.8c0-0.9,0-1.5-0.1-2.2h1.3l0.1,1.4h0c0.4-0.8,1.4-1.5,2.7-1.5c1.1,0,2.9,0.7,2.9,3.5v4.9h-1.5
			v-4.7c0-1.3-0.5-2.4-1.9-2.4c-1,0-1.8,0.7-2,1.5c-0.1,0.2-0.1,0.4-0.1,0.7v4.9h-1.5V370.8z"/>
		<path class="st1" d="M394.6,375.9c0-0.6,0.4-1.1,1-1.1c0.6,0,1,0.4,1,1.1c0,0.6-0.4,1.1-1,1.1C395,377,394.6,376.5,394.6,375.9z"
			/>
		<path class="st1" d="M404.4,376.5c-0.4,0.2-1.3,0.5-2.4,0.5c-2.5,0-4.1-1.7-4.1-4.2c0-2.5,1.7-4.4,4.4-4.4c0.9,0,1.7,0.2,2.1,0.4
			l-0.3,1.2c-0.4-0.2-0.9-0.4-1.7-0.4c-1.9,0-2.9,1.4-2.9,3.1c0,1.9,1.2,3.1,2.9,3.1c0.8,0,1.4-0.2,1.8-0.4L404.4,376.5z"/>
		<path class="st1" d="M413.5,372.6c0,3-2.1,4.4-4.1,4.4c-2.2,0-3.9-1.6-3.9-4.2c0-2.8,1.8-4.4,4.1-4.4
			C411.9,368.4,413.5,370.1,413.5,372.6z M406.9,372.7c0,1.8,1,3.2,2.5,3.2c1.4,0,2.5-1.3,2.5-3.2c0-1.4-0.7-3.2-2.5-3.2
			S406.9,371.1,406.9,372.7z"/>
		<path class="st1" d="M415.4,370.8c0-0.9,0-1.5-0.1-2.2h1.3l0.1,1.3h0.1c0.5-0.8,1.2-1.5,2.6-1.5c1.1,0,2,0.7,2.3,1.6h0
			c0.3-0.5,0.6-0.8,0.9-1.1c0.5-0.4,1-0.6,1.8-0.6c1.1,0,2.7,0.7,2.7,3.6v4.8h-1.5v-4.7c0-1.6-0.6-2.5-1.8-2.5
			c-0.9,0-1.5,0.6-1.8,1.4c-0.1,0.2-0.1,0.5-0.1,0.7v5.1h-1.5v-4.9c0-1.3-0.6-2.3-1.7-2.3c-0.9,0-1.6,0.7-1.9,1.5
			c-0.1,0.2-0.1,0.5-0.1,0.7v5h-1.5V370.8z"/>
	</g>
</g>
<g id="Layer_4">
	<path class="st1" d="M283,117.5h1.5c0.6,0,1,0.5,1,1.4c0,2.5-7.3,6-21.8,10.6c-16.6,6.7-25.1,10.9-25.6,12.6
		c1.9,2.3,2.9,4.1,2.9,5.4c0,1.3-0.6,2.2-1.9,2.9c-3.2-2.1-4.8-3.8-4.8-5.4c0-7.3,9.2-13.8,27.5-19.3L283,117.5z M406.8,132h1.9
		l8.7,25.6l-1.4,1.9l-3.4-3.4h-1c4.5,39.8,6.8,64.8,6.8,74.9h0.5l-0.5,0.5v1.4c-0.9,11.9-2.5,17.9-4.8,17.9h-0.5l-0.5-1.9l0.5-7.3
		c0-10-2.4-38.5-7.3-85.5l-1.4-16L406.8,132z M548,132c2.9,1.5,4.4,3.3,4.4,5.3v0.5c0,1.7-0.6,2.8-1.9,3.4c-2-1.9-3.6-2.9-4.8-2.9
		c-1.6,0.7-2.4,2.3-2.4,4.8v2.4c0,12.2-0.8,18.4-2.4,18.4h-1c-3.7-9-7.7-13.5-12.1-13.5c-3.2-1.8-4.8-4-4.8-6.8
		c0-1.8,0.6-2.9,1.9-3.4c4.1,0.6,9,4.6,14.5,12.1h1v-8.3C542,136,544.6,132,548,132z M380.2,132.5h1.4c5.5,12.4,8.3,19.5,8.3,21.3v1
		l-1,1h-0.5l-2.4-1.9h-1c4.8,36.2,7.2,57.2,7.2,62.9v3.9c0,15.9-7.1,28.5-21.3,37.7c-5.2,3.2-12.9,5.7-23.2,7.3
		c0,0.6-2.3,1.1-6.8,1.4l-0.5-0.5v-1c2.2-2.1,7.3-4.7,15.5-7.7c10.5-5,19.3-11.5,26.6-19.3l1-1.9v-1c0-10.9-12.9-27.8-38.7-50.8
		c-11.5-13.1-19.9-24.4-25.1-33.8V147l0.5-3.4h0.5c3.5,0.8,9.3,5.7,17.4,14.5v0.5l-0.5,0.5h-1.5l-2.4-0.5l-0.5,0.5
		c0,1.8,14.7,17.6,44,47.4c5.8,9.8,8.7,17,8.7,21.7l0.5,0.5h0.5l0.5-1.9c-0.6-10.4-4-39.5-10.1-87
		C378.3,134.9,379.2,132.5,380.2,132.5z M581.8,133h1.5c3.2,0,4.8,4.8,4.8,14.5c2.2,1.4,3.4,3.2,3.4,5.3c-0.3,1.3-0.9,1.9-1.9,1.9
		l-4.3-1.9c-8.5,8.1-13.9,12.8-16.4,14.1c-8.9,6-15.9,9.3-21.3,10.1v-0.5c2.9-2.5,11.5-8.3,25.6-17.4c5.5-4,8.3-6.9,8.3-8.7v-0.5
		c-3.2-1.7-4.8-3.8-4.8-6.3v-0.5C576.5,139.1,578.3,135.7,581.8,133z M265.6,133.4h0.5c1.8,0,5.9,28,12.1,84.1
		c2.5,8.1,5.1,12.8,7.7,14.1l1-1c-1-1.9-1.8-5.3-2.4-10.2c0-5.2,3.4-10.6,10.1-15.9c2.1-1,4.7-1.5,7.7-1.5h1
		c5.5,0,21.2,3.7,46.9,11.2c6.7,0.6,10.1,1.5,10.1,2.9c-1.7,4.7-3,7.3-3.9,7.7h-2.9c-5.3,0-12.1,3.1-20.3,9.2l-18.8,9.2
		c-5.5,1.6-11.5,2.9-17.9,3.9c-0.8,2.9-1.6,4.3-2.4,4.3c-0.8,0-1.4-1.6-1.9-4.8c-7.1-3-12.3-7.5-15.5-13.5l-2.9-9.2h-1
		c-3.5,11.4-10.1,20.2-19.9,26.6c-3.3,2.4-13.6,6.1-30.9,11.2v-1.5c0-0.4,5.3-3.3,16-8.7c7.4-4.4,15.8-11.2,25.1-20.3l3.4-5.3v-0.5
		c0-9.9-8.5-21.8-25.6-35.8c-23.6-22.1-35.6-35.8-36.3-41.1v-5.8c0-0.6,0.5-1,1.5-1c8.8,5.6,14.6,10,17.4,13v0.5l-1,1h-0.5l-3.4-0.5
		l-0.5,0.5c5.8,7.4,13.5,14.8,23.2,22.2c16.8,15.6,25.1,25.5,25.1,30c0.8,0,1.6,3.4,2.4,10.1h0.5l1-5.8c0-5.7-2.4-28.7-7.2-69.1
		C263.7,136.9,264.5,133.5,265.6,133.4z M443.1,134.4c1.8,0,3.1,1.8,3.9,5.4l-0.5,8.7c3.2,2.6,4.8,4.5,4.8,5.8
		c-0.4,1.9-0.9,2.9-1.4,2.9h-0.5c-2.7-2.3-4.6-3.4-5.8-3.4c-9.1,9.7-17.8,15.8-26.1,18.4l-1-1c0-0.7,5.7-4.7,17-12.1
		c4.5-3.9,6.8-6.4,6.8-7.7c-2.3-2.9-3.4-4.8-3.4-5.8v-1c1.3-6.4,3.4-9.7,6.3-9.7V134.4z M506.9,135.4h0.5l0.5,1.5
		c0,2.7-4.5,6.3-13.5,10.6c-18.8,12.2-29.3,18.5-31.5,18.8v-1.9c0-3.1,10.8-10.6,32.4-22.2C502,137.6,505.9,135.4,506.9,135.4z
		 M138.9,136.3h1c2.3,0,4.1,1.9,5.4,5.8c-0.6,1.5-1.3,2.3-1.9,2.4h-1.5l-3.9-1.9c-0.9,0-1.6,5.3-1.9,15.9c-1.1,5.5-2.2,8.3-3.4,8.3
		c-3.8-8.9-6.6-13.6-8.3-14.1H123c0,4.4-5.8,9.4-17.4,15l-0.5-0.5v-1c1.1-1.5,5.2-4.8,12.1-9.7c1.9-1.9,2.9-3.5,2.9-4.8v-0.5
		c-2.9-2.3-4.4-4.2-4.4-5.8c0.3-2.3,1.2-3.9,2.4-4.8c3.2,0,8,4.7,14.5,14C134.5,142.4,136.6,136.3,138.9,136.3z M356.1,136.8h1v0.5
		l-1.5,11.2v0.5c0,1.8,0.8,3.1,2.4,3.9h1.4l1-2.4h0.5c0.6,0,1,0.5,1,1.4c-0.8,4.5-2.4,6.8-4.8,6.8h-1c-2.3-1.8-3.4-4.7-3.4-8.7
		C353.3,145.3,354.4,141,356.1,136.8z M579.4,141.7l3.9,2.9h1.4v-1.9c0-2.6-1.1-3.9-3.4-3.9C580.1,139.4,579.4,140.4,579.4,141.7z
		 M178.1,139.2h0.5c-2.2,10-3.4,16.6-3.4,19.9c0,4.6,1.4,7.6,4.3,9.2c0.7,0,1.5-1.6,2.4-4.8h1.4l0.5,1.5c-0.6,6.4-2.4,10.1-5.4,11.1
		c-4.8-1.5-7.2-5.8-7.2-13C173.7,147.1,175.9,139.2,178.1,139.2z M440.2,141.7v1.4l2.4,2.4h0.5c0.6,0,1-0.5,1-1.5l-1.5-3.4
		L440.2,141.7z M298,157.6h1.9c5.2,0,7.7,1.1,7.7,3.4c-4.1,7.4-8.8,11.1-14.1,11.1l-0.5-0.5v-0.5c3.9-2.8,5.8-4.7,5.8-5.8h-4.8
		l-5.4,1h-0.5v-0.5C290.2,160.3,293.4,157.6,298,157.6z M512.7,163.4h1v1c-1.3,3.9-1.9,6.8-1.9,8.7v2.4c0,1.9,1,3.5,2.9,4.8h1.4
		c0.5,0,1.2-1.1,1.9-3.4h0.5l1,1v1c-1.5,5.8-3.1,8.7-4.8,8.7c-3.9-1.9-5.8-5.3-5.8-10.1C508.8,174.1,510.1,169.5,512.7,163.4z
		 M585.7,166.8h0.5l-2.4,7.2v3.9c0.4,2.4,1,3.7,1.9,3.9h1.5c0.5,0,0.9-0.6,1.4-1.9l0.5-0.5h0.5l0.5,0.5v0.5c0,3-1.3,5.7-3.9,8.2h-1
		c-2.9-1.7-4.4-5.4-4.4-11.1C583.2,170.4,584.8,166.8,585.7,166.8z M450.8,169.2c3.6,2.2,6.2,4.6,7.7,7.3c-0.5,2.3-2,4.4-4.4,6.3h-1
		l-5.3-3.9h-1c-1,0.3-2.2,2.1-3.4,5.4l-0.5,0.5h-0.5c-5.8-2.6-8.7-4.8-8.7-6.8c1.3-3.4,2.6-5.4,3.9-6.3h0.5l7.2,3.4h0.5
		C447.6,171.7,449.2,169.8,450.8,169.2z M106.1,176.5l-4.3,23.2v1.4c0.4,6.1,1.8,9.2,4.3,9.2c1.6,0,2.9-2.1,3.9-6.3h1.5l0.5,2.4
		c-0.6,7.4-3,11.1-7.2,11.1l-1.5-0.5c-1.8,0-3.2,4.5-4.3,13.5v5.8c0,8.2,4.3,14.2,13,17.9c1.5,1,4.7,1.5,9.7,1.5h0.5
		c15.1,0,30.7-6.9,46.9-20.8c0.5-1.3,1-1.9,1.5-1.9c0-5-2.4-12.4-7.3-22.2c0.6-4.2,1.2-6.3,1.9-6.3h1c4.3,7.7,8.3,11.6,12.1,11.6
		c0.6,0,3.9-4.5,10.1-13.5c8-11.6,15.9-17.4,23.7-17.4h0.5c8.7,0,16,5.2,21.8,15.5c0,11.2-6.1,18.7-18.4,22.7
		c-7.9,3.2-16.3,4.8-25.1,4.8l-15-1.4h-1c0,11.5-5.6,20-16.9,25.6c-13.2,9-26.7,13.5-40.6,13.5c-5.5,0-10.9-2.4-16-7.2
		c-4.5-6.7-6.8-12.7-6.8-17.9c0-7.2,1.6-15.6,4.8-25.1v-2.4l-1.4-6.8V204c0-5.8,2.3-14.8,6.8-27.1l0.5-0.5H106.1z M136,177.5h0.5
		l-2.9,9.2v5.4c0,2.2,1.1,3.8,3.4,4.8l2.4-3.4h0.5l0.5,1.5c-1.5,5.5-3,8.2-4.4,8.2c-3.2,0-5.1-3.5-5.8-10.6
		C132.5,182.4,134.4,177.5,136,177.5z M478.3,178.9h1c5.6,5.3,9.1,9,10.6,11.2v1l-3.4,0.5v1l6.8,13.5l1.4,6.3
		c0,8.9-4.3,16.1-13,21.7l-1.5,5.4c0,8.8,3.7,14.4,11.2,16.9h4.3c12.4,0,26.2-9.3,41.6-28v-1l-1.4-1.9c-5.8,1.6-11.2,2.4-16,2.4
		c-5.5-1.7-8.2-5.1-8.2-10.2v-0.5c1.8-10,6.4-15,13.5-15c3.3,0.6,7.5,3.8,12.6,9.7c0,1,0.6,1.5,1.9,1.5c3.7-1.8,8.8-5.4,15.5-10.6
		h1.4l1.5,1.9l-0.5,4.8c2.2,4.8,5.9,7.2,11.2,7.2h1c3.2,0,6.7-1.9,10.6-5.8c3.7-6.7,6-10.2,6.8-10.6h1v1h0.5l-1.9,5.8
		c0,3.2,3.7,5.1,11.2,5.8l2.4-1v-1.4l-1.9-5.4v-1c0.6-3.9,1.4-5.8,2.4-5.8h0.5c2.9,3.9,4.4,7.9,4.4,12.1c-1.3,8.4-4.5,12.6-9.7,12.6
		c-4.3,0-8.4-2.1-12.6-6.3h-0.5c-5.2,6.4-10.5,9.7-15.9,9.7c-6.4,0-10.8-3.7-13.1-11.1l-1-1c-7.4,4.5-11.1,8.2-11.1,11.1
		c0,6.9-3.5,13.8-10.6,20.8c-13.8,13.5-25.2,20.3-34.4,20.3h-2.4c-9.2,0-15.2-6.3-17.9-18.9l0.5-0.5v-8.3h-0.5
		c-18.7,12.9-32.3,20.2-40.6,21.8l-24.2,5.3l-1.4-0.5v-0.5c1.8-1.7,11-5.9,27.5-12.6c20.3-11,36.9-22.1,49.8-33.3l2.4-3.4
		c0-1.4-3.4-8.5-10.1-21.3l-2.9-8.2L478.3,178.9z M304.3,179.8c4.3,2.8,6.9,5.4,7.7,7.7c-0.6,2.1-2.2,4.3-4.8,6.3
		c-2,0-4.7-2.1-8.2-6.3c0.9-5.2,2.6-7.7,4.8-7.7H304.3z M333.8,183.3h1v0.5c-1.3,3.9-1.9,7-1.9,9.2c0.3,1.9,0.8,2.9,1.4,2.9l2.4-1.5
		h1v0.5c-1.1,4.8-2.7,7.2-4.8,7.2c-2.3-0.9-3.4-3.2-3.4-6.8C329.4,193.8,330.9,189.7,333.8,183.3z M460.5,186.6v1
		c0,3.2-2.6,9-7.7,17.4v1.5c6.4,3.6,9.7,7.9,9.7,13c-0.3,9.6-6.5,16.1-18.4,19.3h-0.5c-4.5,0-6.8-3.1-6.8-9.2v-1
		c0-5.7,1.5-11,4.4-16v-0.5c0-1.5-2.9-4.7-8.7-9.7c-2.9-2.8-4.4-5.2-4.4-7.3l1-4.8h1.9c5.8,2.2,9.7,4.2,11.6,5.8v0.5
		c0,0.6-0.5,1-1.4,1v1.4c1.7,2.3,3.5,3.4,5.3,3.4h0.5c0.8-0.5,4.8-5.8,12.1-16H460.5z M183.9,217.1l5.8,1.4c14.4,0,27-3.5,37.7-10.6
		v-2.4c-5.1-7.1-11.2-10.6-18.4-10.6h-1.9c-6.1,0-13.2,6.1-21.3,18.4L183.9,217.1z M289.8,217.5v1.9c3.4,11,5.7,16.4,6.8,16.4h1.9
		c10.3,0,23.1-4.5,38.2-13.5V221c-16.2-5.5-27.6-8.3-34.3-8.3C295.7,212.7,291.5,214.3,289.8,217.5z M518,215.6
		c0,1.2,1.9,1.8,5.8,1.9c3.6-0.2,5.4-0.7,5.4-1.4c0-1.5-1.9-2.6-5.8-3.4C520.9,212.7,519.1,213.7,518,215.6z M440.6,225.8
		c0.4,1.3,1.2,2.3,2.4,2.9h0.5c4.9,0,9.4-2.4,13.5-7.3V221c-0.8-2.3-4.1-4.4-10.1-6.3c-1.9,0-4,3.1-6.3,9.2V225.8z M139.9,217.5v1
		l-3.9,11.6c0.5,4.9,1.7,7.3,3.4,7.3l2.4-3.4l1,1c-0.9,5.5-2.3,8.3-4.3,8.3c-3,0-4.9-3.1-5.8-9.2c0-4.7,2.1-10.2,6.3-16.4H139.9z
		 M226.9,234h0.5l0.5,1.5c0,2.8-6,6.5-17.9,11.1c-19.3,9.5-30.1,15.1-32.4,17v1l4.4,4.3c-0.7,1.9-2,2.9-3.9,2.9
		c-2.9-0.9-4.4-3-4.4-6.3c0-5.2,2.9-8.6,8.7-10.2C211.2,241.1,226,234,226.9,234z M593.4,234c0.6,0,1,0.5,1,1.5
		c-1.2,6.7-3.5,10.1-6.8,10.1h-0.5l-3.4-1c-3.3,2.3-5.8,3.4-7.7,3.4l-3.4-1.9h-2.9c-1.8,0-8.1,3.7-18.9,11.1
		c-3.3,1.3-5.9,1.9-7.7,1.9v-0.5c16.5-12.2,26.1-18.4,29-18.4l5.8,1.9c2.4,0,4.8-1.8,7.3-5.4h1c0,1.3,0.6,2.3,1.9,2.9h1.4
		c0.8,0,1.7-1.8,2.9-5.3l0.5-0.5H593.4z M328.5,242.7h0.5v0.5l-2.4,10.6c0,2,0.8,3.5,2.4,4.3h1l2.4-2.4h0.5v0.5
		c0,3.5-1.6,6.2-4.8,8.3c-2.5,0-4.1-2.3-4.8-6.8C323.2,253,324.9,248,328.5,242.7z M275.8,244.2h1v1c-1.3,4.1-1.9,7.8-1.9,11.1
		c0.3,2.6,0.9,3.9,1.9,3.9h1l2.4-1.9l0.5,0.5h0.5c-1.5,5.2-3.2,7.7-4.8,7.7c-3.2-1.5-4.8-4.3-4.8-8.3
		C272.9,250.3,274.4,245.6,275.8,244.2z M387,255.8h2.4c0.6,0.1,1.3,0.9,1.9,2.4c-0.8,2.3-1.7,3.4-2.9,3.4l-2.9-1l-0.5,0.5v0.5
		c0,0.5,1,1,2.9,1.4l2.9-0.5h1c1.6,0.1,2.4,0.4,2.4,1c0,2.7-3.5,4.6-10.6,5.8l-1.4,0.5h-1v-2.9l-1-3.9
		C381.7,259.9,384,257.5,387,255.8z M396.2,268.8l1.5,0.5v1.4c0,1.7-5.5,4-16.4,6.8h-1.9l-1-1v-0.5
		C378.4,274.6,384.3,272.2,396.2,268.8z"/>
</g>
</svg>
