<?xml version="1.0" encoding="utf-8"?>
<!-- Generator: Adobe Illustrator 25.2.3, SVG Export Plug-In . SVG Version: 6.00 Build 0)  -->
<svg version="1.1" xmlns="http://www.w3.org/2000/svg" xmlns:xlink="http://www.w3.org/1999/xlink" x="0px" y="0px"
	 viewBox="0 0 700 395" style="enable-background:new 0 0 700 395;" xml:space="preserve">
<style type="text/css">
	.st0{fill:#000222;}
	.st1{fill:#FFFFFF;}
</style>
<g id="Layer_1">
	<rect class="st0" width="700" height="395"/>
</g>
<g id="Layer_3">
	<g>
		<path class="st1" d="M273.5,368.6l1.1,4.2c0.2,0.9,0.5,1.8,0.6,2.6h0.1c0.2-0.8,0.5-1.7,0.7-2.6l1.3-4.2h1.3l1.3,4.1
			c0.3,1,0.5,1.9,0.7,2.7h0.1c0.1-0.8,0.4-1.7,0.6-2.7l1.2-4.1h1.5l-2.7,8.2H280l-1.3-3.9c-0.3-0.9-0.5-1.7-0.7-2.7h0
			c-0.2,1-0.5,1.8-0.7,2.7l-1.3,3.9h-1.4l-2.5-8.2H273.5z"/>
		<path class="st1" d="M286.3,368.6l1.1,4.2c0.2,0.9,0.5,1.8,0.6,2.6h0.1c0.2-0.8,0.5-1.7,0.7-2.6l1.3-4.2h1.3l1.3,4.1
			c0.3,1,0.5,1.9,0.7,2.7h0.1c0.1-0.8,0.4-1.7,0.6-2.7l1.2-4.1h1.5l-2.7,8.2h-1.4l-1.3-3.9c-0.3-0.9-0.5-1.7-0.7-2.7h0
			c-0.2,1-0.5,1.8-0.7,2.7l-1.3,3.9h-1.4l-2.5-8.2H286.3z"/>
		<path class="st1" d="M299,368.6l1.1,4.2c0.2,0.9,0.5,1.8,0.6,2.6h0.1c0.2-0.8,0.5-1.7,0.7-2.6l1.3-4.2h1.3l1.3,4.1
			c0.3,1,0.5,1.9,0.7,2.7h0.1c0.1-0.8,0.4-1.7,0.6-2.7l1.2-4.1h1.5l-2.7,8.2h-1.4l-1.3-3.9c-0.3-0.9-0.5-1.7-0.7-2.7h0
			c-0.2,1-0.5,1.8-0.7,2.7l-1.3,3.9h-1.4l-2.5-8.2H299z"/>
		<path class="st1" d="M309.9,375.9c0-0.6,0.4-1.1,1-1.1c0.6,0,1,0.4,1,1.1c0,0.6-0.4,1.1-1,1.1C310.3,377,309.9,376.5,309.9,375.9z
			"/>
		<path class="st1" d="M313.5,375.3c0.4,0.3,1.2,0.6,2,0.6c1.1,0,1.6-0.5,1.6-1.2c0-0.7-0.4-1.1-1.5-1.5c-1.5-0.5-2.2-1.3-2.2-2.3
			c0-1.3,1.1-2.4,2.8-2.4c0.8,0,1.6,0.2,2,0.5l-0.4,1.1c-0.3-0.2-0.9-0.5-1.7-0.5c-0.9,0-1.4,0.5-1.4,1.1c0,0.7,0.5,1,1.6,1.4
			c1.4,0.5,2.2,1.3,2.2,2.5c0,1.4-1.1,2.5-3.1,2.5c-0.9,0-1.7-0.2-2.3-0.6L313.5,375.3z"/>
		<path class="st1" d="M327.4,374.6c0,0.9,0,1.6,0.1,2.2h-1.3l-0.1-1.3h0c-0.4,0.7-1.3,1.5-2.7,1.5c-1.3,0-2.8-0.7-2.8-3.6v-4.8h1.5
			v4.6c0,1.6,0.5,2.6,1.8,2.6c1,0,1.7-0.7,2-1.4c0.1-0.2,0.1-0.5,0.1-0.8v-5h1.5V374.6z"/>
		<path class="st1" d="M329.8,371.1c0-1,0-1.8-0.1-2.6h1.3l0.1,1.6h0.1c0.4-1.1,1.3-1.8,2.3-1.8c0.2,0,0.3,0,0.4,0.1v1.4
			c-0.2,0-0.3-0.1-0.5-0.1c-1.1,0-1.8,0.8-2,1.9c0,0.2-0.1,0.4-0.1,0.7v4.4h-1.5V371.1z"/>
		<path class="st1" d="M339.9,376.8l-0.1-1h-0.1c-0.5,0.6-1.3,1.2-2.5,1.2c-1.7,0-2.5-1.2-2.5-2.4c0-2,1.8-3.1,4.9-3.1v-0.2
			c0-0.7-0.2-1.9-1.9-1.9c-0.8,0-1.6,0.2-2.1,0.6l-0.3-1c0.7-0.4,1.7-0.7,2.7-0.7c2.5,0,3.1,1.7,3.1,3.4v3.1c0,0.7,0,1.4,0.1,2
			H339.9z M339.7,372.6c-1.6,0-3.5,0.3-3.5,1.9c0,1,0.6,1.4,1.4,1.4c1.1,0,1.8-0.7,2-1.4c0.1-0.2,0.1-0.3,0.1-0.5V372.6z"/>
		<path class="st1" d="M343.5,364.7h1.5v5.1h0c0.2-0.4,0.6-0.8,1.1-1.1c0.4-0.3,1-0.4,1.5-0.4c1.1,0,2.9,0.7,2.9,3.5v4.9H349v-4.7
			c0-1.3-0.5-2.4-1.9-2.4c-1,0-1.7,0.7-2,1.5c-0.1,0.2-0.1,0.4-0.1,0.7v5h-1.5V364.7z"/>
		<path class="st1" d="M358.6,375.5L358.6,375.5c-0.5,0.8-1.4,1.5-2.7,1.5c-1.9,0-3.5-1.7-3.5-4.2c0-3.1,2-4.4,3.7-4.4
			c1.3,0,2.1,0.6,2.5,1.4h0l0.1-1.2h1.4c0,0.7-0.1,1.4-0.1,2.3v9.3h-1.5V375.5z M358.6,371.9c0-0.2,0-0.4-0.1-0.6
			c-0.2-0.9-1-1.7-2.1-1.7c-1.5,0-2.5,1.3-2.5,3.2c0,1.6,0.8,3.1,2.4,3.1c1,0,1.8-0.6,2.1-1.6c0.1-0.2,0.1-0.5,0.1-0.7V371.9z"/>
		<path class="st1" d="M369.4,374.6c0,0.9,0,1.6,0.1,2.2h-1.3l-0.1-1.3h0c-0.4,0.7-1.3,1.5-2.7,1.5c-1.3,0-2.8-0.7-2.8-3.6v-4.8h1.5
			v4.6c0,1.6,0.5,2.6,1.8,2.6c1,0,1.7-0.7,2-1.4c0.1-0.2,0.1-0.5,0.1-0.8v-5h1.5V374.6z"/>
		<path class="st1" d="M371.9,371.1c0-1,0-1.8-0.1-2.6h1.3l0.1,1.6h0.1c0.4-1.1,1.3-1.8,2.3-1.8c0.2,0,0.3,0,0.4,0.1v1.4
			c-0.2,0-0.3-0.1-0.5-0.1c-1.1,0-1.8,0.8-2,1.9c0,0.2-0.1,0.4-0.1,0.7v4.4h-1.5V371.1z"/>
		<path class="st1" d="M381.9,376.8l-0.1-1h-0.1c-0.5,0.6-1.3,1.2-2.5,1.2c-1.7,0-2.5-1.2-2.5-2.4c0-2,1.8-3.1,4.9-3.1v-0.2
			c0-0.7-0.2-1.9-1.9-1.9c-0.8,0-1.6,0.2-2.1,0.6l-0.3-1c0.7-0.4,1.7-0.7,2.7-0.7c2.5,0,3.1,1.7,3.1,3.4v3.1c0,0.7,0,1.4,0.1,2
			H381.9z M381.7,372.6c-1.6,0-3.5,0.3-3.5,1.9c0,1,0.6,1.4,1.4,1.4c1.1,0,1.8-0.7,2-1.4c0.1-0.2,0.1-0.3,0.1-0.5V372.6z"/>
		<path class="st1" d="M385.6,370.8c0-0.9,0-1.5-0.1-2.2h1.3l0.1,1.4h0c0.4-0.8,1.4-1.5,2.7-1.5c1.1,0,2.9,0.7,2.9,3.5v4.9h-1.5
			v-4.7c0-1.3-0.5-2.4-1.9-2.4c-1,0-1.8,0.7-2,1.5c-0.1,0.2-0.1,0.4-0.1,0.7v4.9h-1.5V370.8z"/>
		<path class="st1" d="M394.6,375.9c0-0.6,0.4-1.1,1-1.1c0.6,0,1,0.4,1,1.1c0,0.6-0.4,1.1-1,1.1C395,377,394.6,376.5,394.6,375.9z"
			/>
		<path class="st1" d="M404.4,376.5c-0.4,0.2-1.3,0.5-2.4,0.5c-2.5,0-4.1-1.7-4.1-4.2c0-2.5,1.7-4.4,4.4-4.4c0.9,0,1.7,0.2,2.1,0.4
			l-0.3,1.2c-0.4-0.2-0.9-0.4-1.7-0.4c-1.9,0-2.9,1.4-2.9,3.1c0,1.9,1.2,3.1,2.9,3.1c0.8,0,1.4-0.2,1.8-0.4L404.4,376.5z"/>
		<path class="st1" d="M413.5,372.6c0,3-2.1,4.4-4.1,4.4c-2.2,0-3.9-1.6-3.9-4.2c0-2.8,1.8-4.4,4.1-4.4
			C411.9,368.4,413.5,370.1,413.5,372.6z M406.9,372.7c0,1.8,1,3.2,2.5,3.2c1.4,0,2.5-1.3,2.5-3.2c0-1.4-0.7-3.2-2.5-3.2
			S406.9,371.1,406.9,372.7z"/>
		<path class="st1" d="M415.4,370.8c0-0.9,0-1.5-0.1-2.2h1.3l0.1,1.3h0.1c0.5-0.8,1.2-1.5,2.6-1.5c1.1,0,2,0.7,2.3,1.6h0
			c0.3-0.5,0.6-0.8,0.9-1.1c0.5-0.4,1-0.6,1.8-0.6c1.1,0,2.7,0.7,2.7,3.6v4.8h-1.5v-4.7c0-1.6-0.6-2.5-1.8-2.5
			c-0.9,0-1.5,0.6-1.8,1.4c-0.1,0.2-0.1,0.5-0.1,0.7v5.1h-1.5v-4.9c0-1.3-0.6-2.3-1.7-2.3c-0.9,0-1.6,0.7-1.9,1.5
			c-0.1,0.2-0.1,0.5-0.1,0.7v5h-1.5V370.8z"/>
	</g>
</g>
<g id="Layer_4">
	<path class="st1" d="M554.8,111.2c3.2,0,5.2,2.2,6.1,6.7c0,3-0.6,4.7-1.8,4.9c-2.5-2.4-4.5-3.7-6.1-3.7h-0.7
		c-1.6,0.6-2.4,2.4-2.4,5.6v8.6c0,12.6-1.2,18.9-3.7,18.9c-5.4-11.4-10.3-17.1-14.7-17.1c-2.8,0-5.4-2.4-7.9-7.3
		c0-3.2,1.2-5,3.7-5.5c3.6,0,9.6,4.9,17.7,14.7h0.7l0.6-3.1v-0.6l-0.6-0.7l0.6-0.6v-4.9C546.2,120,549.1,114.6,554.8,111.2z
		 M600.1,111.2c3.2,0,5.4,6.5,6.8,19.6c2.4,1.5,3.7,3.3,3.7,5.5l-0.7,2.4h-1.2c-1.4,0-2.8-0.6-4.2-1.8H602
		c-15.3,15.6-29.2,25.6-41.6,30l-3.7,1.2l-0.7-0.6v-0.7l28.2-19.6c8.5-7,13-11.2,13.5-12.8c-4.1-4.1-6.1-6.8-6.1-8V124
		C592.9,115.4,595.7,111.2,600.1,111.2z M345.4,113.6c1.1,0.8,3.8,7.1,8,18.9c1,0,2.6,4.1,4.9,12.2l-0.7,1.9h-1.8l-3.1-2.4l-1.2,1.2
		c6.5,50.9,9.8,81.8,9.8,92.4v0.7c0,12.4-5.7,20.2-17.1,23.3c-1,0.8-3.7,1.2-7.9,1.2v0.6c-10.2-3-15.3-8.1-15.3-15.3
		c-0.6-1.6-1.2-2.4-1.8-2.4h-0.7c-21.8,14.7-41.7,22-59.9,22s-29.8-9.4-34.9-28.2c-2.4-12.4-5.1-43.2-8-92.5
		c-1.6-11.1-3-18-4.2-20.8c1.5-6.5,2.9-9.8,4.2-9.8h0.7c2.3,0,5.2,18.6,8.6,55.8l-0.7,0.6c2.8,45.3,5.6,68,8.6,68
		c5.7,9.8,15.6,14.7,30,14.7c14.3,0,30-5.1,47.2-15.3l12.9-8.6h2.4c0.6,11.9,3.6,17.8,9.1,17.8l1.9,1.2c12.6-1.5,18.9-4.3,18.9-8.6
		l-9.8-79.6c-1.7-20.9-3.4-33.8-4.9-38.6C342.3,117.1,343.9,113.6,345.4,113.6z M377.9,115.4c8.5,13.4,12.8,22.8,12.8,28.2l-1.2,1.2
		l-4.2-3.7h-0.7l-0.6,0.7h-0.7l10.5,91.2l-0.7,4.3h0.7l-0.7,0.6v3.1l0.7,0.6c-1.7,11.4-3.6,17.1-5.6,17.1c-0.8,0-1.2-0.6-1.2-1.8
		c0-10.1-3.7-48.7-11-115.8c0-3.9-0.8-9.4-2.4-16.5C374.8,118.5,376.2,115.4,377.9,115.4z M423.8,116.1c1.6,0,3.1,2.6,4.3,7.9
		l-1.2,7.3c0,0.9,2.2,3.6,6.7,8v0.6l-0.6,4.3h-1.9c-3.5-2.4-5.9-3.7-7.3-3.7c-0.8,0-3.9,3.3-9.1,9.8c-10.8,8.2-18.1,12.2-22,12.2
		v-1.9c14.3-10.2,23.2-17.8,26.9-22.6v-0.7c-3.3-4.4-4.9-7.2-4.9-8.6C416.5,120.3,419.6,116.1,423.8,116.1z M504,116.1l0.6,0.6v1.2
		c0,3.4-10.6,11.2-31.8,23.3l-22,14.7h-0.6l-1.2-1.2v-1.2c0-2.9,5.3-7.4,15.9-13.5C486.3,125.4,499.3,117.4,504,116.1z M266.4,116.6
		h1.8c2.9,2,4.3,4.3,4.3,6.8v1.2c0,2.1-0.6,3.3-1.9,3.7c-2.6-2.4-4.4-3.7-5.5-3.7l-3.7,22.6l-0.7,0.7c0,1.2-0.4,1.8-1.2,1.8
		c-5.6-10.6-9.6-15.9-12.2-15.9c-4.9-1.5-7.3-3.7-7.3-6.7v-1.2c0.5-3,1.3-4.7,2.4-4.9h0.7c3.5,0,8.8,4.9,15.9,14.7h1.2v-2.4
		C260.3,126.1,262.4,120.5,266.4,116.6z M595.2,121c0,2,1.2,3.6,3.7,4.9h1.9l1.2-1.2V124c0-2.2-0.8-3.8-2.4-4.9h-2.4L595.2,121z
		 M129.8,120.3c4.5,2.8,6.8,5.7,6.8,8.6c-0.7,1.6-1.3,2.4-1.9,2.4h-1.8c-2.5-2-4.4-3-5.6-3c-1.2,2.1-1.8,4.1-1.8,6.1v6.7
		c-1,13.1-2.2,19.6-3.7,19.6c-1.4-0.8-3.2-3.6-5.6-8.6c-3.3-5.3-6.3-7.9-9.1-7.9c-3.9,0-6.7-2.3-8.6-6.8c0.6-4.5,1.6-6.7,3-6.7h2.4
		c4,2,9.7,7.7,17.1,17.1h0.7C123,129.5,125.6,120.3,129.8,120.3z M175.8,122.8h1.8v1.2c-2.4,9.8-3.7,17-3.7,21.5v3.7
		c0,4.6,1.9,7.3,5.6,7.9c0.9-0.2,1.9-1.8,3-4.9h0.7l1.2,1.2c-1.9,9-3.9,13.5-6.1,13.5H177c-4.5,0-7.1-4.7-8-14
		C169,147.4,171.3,137.4,175.8,122.8z M420.1,124l-0.6,0.7v1.2c0,2.4,1.2,3.7,3.7,3.7h0.6v-1.9C423.8,125.2,422.5,124,420.1,124z
		 M332.6,125.2l2.4,0.7v1.8c0,3.4-5.7,6.9-17.1,10.5l-63.1,28.7c-11,6-16.5,10.5-16.5,13.5l4.9,5.6v1.8l-2.4,1.9
		c-4.5-0.7-6.8-3-6.8-6.8c0-10.2,10.8-19.6,32.5-28.2C278,148.9,300,139.1,332.6,125.2z M511.9,152.1h0.7
		c-1.6,6.1-2.4,10.7-2.4,13.8c0,3.1,1.4,5.6,4.2,7.7h1.2c0.9,0,1.7-1.6,2.4-4.9h0.7l1.2,1.2c0,4.4-1.6,8.1-4.9,11h-2.4
		c-4.1-2.6-6.1-6.9-6.1-12.9C507.9,159.8,509.7,154.5,511.9,152.1z M603.2,154.6l0.6,0.7v0.6c-2,3.9-3,7.9-3,12.2
		c0.9,3.7,2.5,5.6,4.9,5.6l2.4-3.1h1.2v0.7c0,5.6-2.3,8.8-6.8,9.8c-3.3-1.7-4.9-5.4-4.9-11C599.6,159.7,601.4,154.6,603.2,154.6z
		 M434.8,160.1c5.7,4,8.6,7.2,8.6,9.8c-0.7,2.6-2.5,5-5.5,7.3l-8-4.9h-2.4c-2,4.9-3.8,7.3-5.5,7.3c-6.5-3.2-9.8-6-9.8-8.6
		c1.9-5.7,3.9-8.6,6.1-8.6l7.3,4.9h0.6c1.4-0.7,3.2-3.1,5.6-7.3H434.8z M311.1,160.7c3.3,8.3,4.9,13.4,4.9,15.3c0,5.7-2,9.3-6.1,11
		h-0.6l-6.8-1.9c-4.4,3.7-7.5,5.6-9.1,5.6h-1.9c-3.3-1.6-4.9-4.4-4.9-8.6l1.2-9.2h1.9c0.2,6.5,1.2,9.8,3,9.8h1.2
		c3.8,0,6.1-2.4,6.8-7.3l-0.7-6.1c0.3-3.3,1-4.9,2-4.9s1.9,3.7,2.3,11c1.6,2.4,3.5,3.7,5.5,3.7l1.9-1.8c-2.1-4.1-3.1-7.6-3.1-10.5
		C309,162.8,309.8,160.7,311.1,160.7z M83.3,164.4H84l0.6,1.9c-3.6,11.3-5.5,20.2-5.5,26.5c0,6.3,1.6,10.4,4.9,12h1.2
		c0.7,0,2.3-2.4,4.9-7.3l1.2,1.2c0,8.7-3.9,14.8-11.7,18.4c-2,7.9-3,13.4-3,16.6v0.6c0,14,6.7,23,20.2,26.9l3.7,0.7h4.9
		c19.8,0,38.3-9.4,55.8-28.2l0.6-4.9c-1.6-6.4-4.3-13.3-7.9-20.8v-3.1c0-3.1,0.8-4.9,2.4-5.5c0.9,0.2,2.7,2.7,5.5,7.3l2.4,1.2h6.1
		c5.7,0,11.4-5.9,17.1-17.8l1.9-1.2l0.6,1.9l-1.2,7.9c4.3,4.5,8.2,6.8,11.7,6.8c2.4-0.8,3.7-1.6,3.7-2.4l-1.9-7.3
		c0.8-5.7,2-8.6,3.7-8.6c2.3,2.8,4,7.3,4.9,13.5c-1.6,11-5.4,16.5-11.6,16.5c-5.7,0-10.6-2.4-14.7-7.3h-0.7c-0.8,0-3,2.4-6.7,7.3
		l-11,4.3v3.7c0,12.9-4.1,22.1-12.2,27.5c-16.3,14.3-32.6,21.5-49,21.5c-17.7,0-28.5-8.2-32.5-24.5l-1.2-11.7
		c0-4.7,2.3-12.7,6.8-23.8v-1.2c-2.4-7-3.7-11.9-3.7-14.7C76.3,182.5,79.3,171.3,83.3,164.4z M469.7,171.7
		c8.5,7.8,12.8,12.3,12.8,13.5v1.2l-4.2,0.7c6.9,13.6,10.4,21.1,10.4,22.6l0.7,3.7c0,11.2-5.1,20.5-15.3,28.2
		c-1.6,2.5-2.4,6-2.4,10.5c2.1,11.8,8.1,17.7,17.8,17.7h5.5c10.7,0,25.8-10.4,45.3-31.2l3.1-4.9v-1.9l-1.9-1.8l-14,3h-0.7
		c-10.2,0-15.3-4.7-15.3-14v-0.7c0-8.2,4.9-14.3,14.7-18.4c5,0,11.3,4.7,18.9,14.1h1.9c5.1-2.7,11.6-7.4,19.6-14.1h0.6l1.9,1.9v6.1
		c0,4,3,7.2,9.1,9.8h4.9c8.9,0,15.8-6.5,20.8-19.6l2.4-1.9l1.2,1.2l-1.8,7.3v0.7c0,3.4,3.5,5.6,10.4,6.7h4.9l1.9-1.8l-3.1-7.3
		c0.5-6.2,1.6-9.5,3.1-9.8c4.1,3.6,6.1,8.1,6.1,13.5v4.2c-2.1,9.4-5.6,14.1-10.5,14.1h-3c-4.7,0-9.6-2.7-14.7-8
		c-5.5,7.5-12,12-19.6,13.5c-11-1.9-16.6-6.6-16.6-14l-0.6-0.7v-0.6c-1.5,0-4.8,2.2-9.8,6.7c-3.7,1.8-5.6,5.7-5.6,11.7
		c0,11.4-13.3,26.1-39.8,44.1c-7,3.3-13.4,4.9-19,4.9c-11.8,0-19.3-8-22.6-23.9l0.6-0.6v-9.2l-0.6-0.6v-0.7
		c-27.4,19.6-46.8,29.4-58.2,29.4l-22.6,6.1h-1.9v-0.6c0.2-2.1,9.8-6.8,28.8-14.1c1.2-1.5,3.6-2.9,7.3-4.2
		c20.5-11.1,38.8-23.6,55.1-37.4l7.3-7.9v-2.4l-12.9-25.7c0-1.6-1.2-4.7-3.7-9.2C467.2,175,468.2,171.7,469.7,171.7z M121.9,175.4
		h0.6l-1.8,8.6v1.2c0,4.9,1.2,8.4,3.7,10.5l3.7-3.1h0.6v1.9c0,4.8-1.8,7.6-5.5,8.6c-2.8,0-4.8-3.9-6.1-11.7
		C118.7,180.7,120.3,175.4,121.9,175.4z M445.2,181.5h0.6v0.7c0,5.1-3,12.6-9.1,22.6v1.2c0,0.9,2.9,3.2,8.6,6.8
		c2.4,4.1,3.7,7.3,3.7,9.8v0.6c0,10.7-4.7,17.8-14.1,21.5c-3.4,2.4-6.7,3.7-9.8,3.7c-4.7,0-7.5-3.7-8.6-11c0-6.8,1.9-14.8,5.6-23.9
		c0-0.8-3.7-4-11-9.8c-3.7-3-5.6-6.9-5.6-11.6v-0.7c0-3,0.6-4.6,1.9-4.9c10.8,3.6,16.3,6.3,16.5,8c0,0.8-0.6,1.2-1.8,1.2l-0.7,0.6
		v1.2c2.3,3.3,4.7,4.9,7.3,4.9c0.9,0,4.8-5.3,11.7-15.9L445.2,181.5z M309.3,199.9h0.6c5.4,3.3,8.2,6.1,8.6,8.6c0,2.6-1.8,5.3-5.5,8
		c-2.3,0-5.6-2.7-9.8-8v-0.6C304.2,202.6,306.2,199.9,309.3,199.9z M267.7,204.2h1.2v1.2h0.6l-3,13.5v2.4c0,5.2,1.6,8.7,4.9,10.4
		h0.6c0.9,0,2.1-2.2,3.7-6.7h0.7l0.6,1.8c-1,9.8-3.4,14.7-7.3,14.7c-4.5-1.6-6.7-5.4-6.7-11.6v-3.1
		C262.8,224.3,264.4,216.8,267.7,204.2z M519.3,218.3c1.6,1.3,3.4,1.9,5.6,1.9c5.7,0,8.6-0.6,8.6-1.9c-1.3-2.8-4.4-4.2-9.2-4.2
		C520.9,214.6,519.3,216,519.3,218.3z M421.3,230v0.6c0,2.5,1.4,4.4,4.3,5.6c4.9,0,10.6-3.5,17.1-10.5c0-2.2-4.7-5.1-14.1-8.6
		C425.5,219.3,423.1,223.6,421.3,230z M118.8,219.5l0.7,0.7l-2.4,9.1v0.7c0.3,5.7,1.3,8.6,3,8.6h0.7l2.4-1.9h1.2v0.7
		c0,3.9-1.6,6.9-4.9,9.1h-1.2c-3.3-2-4.9-4.9-4.9-8.6v-1.2C113.4,230.6,115.2,224.8,118.8,219.5z M613,239.8h1.2l1.2,1.2v2.4
		c0,3.9-2.4,7.6-7.3,11h-1.2l-4.9-1.2h-0.7c-3.9,2.8-6.7,4.2-8.6,4.2l-6.7-2.4c-4,0-10.9,4.1-20.8,12.2c-5.3,3.3-9.8,4.9-13.5,4.9
		v-0.6l30-22l6.1-1.9l6.1,2.4h1.9c2.1,0,5-2.2,8.6-6.7l3.7,3.7h1.2C610.8,247.1,612,244.6,613,239.8z M214.3,245.9l2.4,1.8v0.7
		c0,3.2-7.5,7.3-22.6,12.2c-23.5,11-36.3,16.7-38.6,17.1l-1.2-2.4c0-2.8,9.6-8.1,28.8-15.9L214.3,245.9z M309.3,258.7h0.6l-1.8,8.6
		v3.1c0,3.6,1.4,5.5,4.2,5.5l1.9-1.8h1.2v0.6c0,3.9-1.6,7-4.9,9.2c-4.5-1-6.8-4.1-6.8-9.2C305.5,264,307.3,258.7,309.3,258.7z"/>
</g>
</svg>
